<svg width="533" height="432" viewBox="0 0 533 432" fill="none" xmlns="http://www.w3.org/2000/svg">
<g clip-path="url(#clip0_169_60)">
<path fill-rule="evenodd" clip-rule="evenodd" d="M44.5 375.5V382H488V92.5H50.5V97H44.5V375.5ZM57.5 110H455.5L456.472 316.5L456.5 322.5L57.5 325.5V319.5V110Z" fill="#B6B5B5"/>
<path d="M38 375.5H44.5V97H50.5V92.5H37.5L38 375.5Z" fill="#C4C4C4"/>
<path d="M32.5 375.5V381.5H38V375.5L37.5 92.5H32.5V375.5Z" fill="#B3B3B2"/>
<path d="M26 381.5H32H32.5V375.5V92.5V30H32V28H33V26.5H34.5V25H36V23.5H37.5H495V22.5H496V21.5H497V16H37.5V21.5H32V26.5H26V381.5Z" fill="#D8D8D8"/>
<path d="M32 381.5V389H506V26.5H500.5V382H488H44.5V375.5H38V381.5H32.5H32Z" fill="#616061"/>
<path fill-rule="evenodd" clip-rule="evenodd" d="M37.5 92.5H50.5H488H494V30H43.5V35H37.5V92.5ZM317.5 36H368.5L373 39.5V86H317.5V36ZM377 35.5C378.6 35.9 411 35.6667 427 35.5V36H432V86.5H377V81.259V58.3795V35.5ZM437 35.5H487.5V36.5H491.5V86.5H437V35.5Z" fill="#0010A8"/>
<path d="M500.5 26.5V21.5H497H496V22.5H495V23.5H37.5V30H32.5V92.5H37.5V35H43.5V30H494V92.5H488V382H500.5V26.5Z" fill="#A5A4A3"/>
<path fill-rule="evenodd" clip-rule="evenodd" d="M322 41V81C333.613 81 354.079 81.0574 363.5 81.259V41H322ZM357.5 69H329.5V75.5H357.5V69Z" fill="#B9B8B9"/>
<path d="M368.5 36H317.5V86L322 81V41H363.5L368.5 36Z" fill="#959292"/>
<path d="M329.5 69H357.5V75.5H329.5V69Z" fill="#0E0E0E"/>
<path d="M368.5 81.5C368.9 81.9 368.667 51.3333 368.5 36L363.5 41V81.259C366.518 81.3236 368.403 81.4029 368.5 81.5Z" fill="#D9D9D9"/>
<path d="M427 35.5C411 35.6667 378.6 35.9 377 35.5V58.3795V81.259H382.5V41H422L427 36V35.5Z" fill="#959292"/>
<path fill-rule="evenodd" clip-rule="evenodd" d="M382.5 41V81.259H422V41H382.5ZM416 74.5H388V46.5H416V74.5Z" fill="#B9B8B9"/>
<path fill-rule="evenodd" clip-rule="evenodd" d="M388 74.5H416V46.5H388V74.5ZM411 52.5H393V69.5H411V52.5Z" fill="black"/>
<path d="M393 52.5H411V69.5H393V52.5Z" fill="#B9B8B9"/>
<path fill-rule="evenodd" clip-rule="evenodd" d="M482 40.5H443V81H482V40.5ZM455.5 47H449.5V53H452.5V54H453.5V56H454.5V57H456.5V58H457.5V59H458.5V63H455.5V65H454.5V66H453.5V67H452.5V69H449.5V75H455.5V69H459.5V67H460.5V66H461.5V65H464.5V66H465.5V69H468.5V70H469.5V75H475.5V69H472.5V67H471.5V65H469.5V63H466.5V59H469.5V57H471.5V55.5H472.5V53H475.5V47H469.5V52H465.5V55.5H464V57H461.5V55.5H460V52H455.5V47Z" fill="#C72315"/>
<path d="M449.5 47H455.5V52H460V55.5H461.5V57H464V55.5H465.5V52H469.5V47H475.5V53H472.5V55.5H471.5V57H469.5V59H466.5V63H469.5V65H471.5V67H472.5V69H475.5V75H469.5V70H468.5V69H465.5V66H464.5V65H461.5V66H460.5V67H459.5V69H455.5V75H449.5V69H452.5V67H453.5V66H454.5V65H455.5V63H458.5V59H457.5V58H456.5V57H454.5V56H453.5V54H452.5V53H449.5V47Z" fill="white"/>
<path d="M487.5 35.5H437V86.5L443 81V40.5H482H484L487.5 36.5V35.5Z" fill="#FBAE94"/>
<path d="M487.5 36.5L484 40.5H482V81L487.5 83.5V36.5Z" fill="#940F0A"/>
<path d="M491.5 36.5H487.5V83.5L482 81H443L437 86.5H491.5V36.5Z" fill="#000310"/>
<path d="M432 36H427V81.259H422H382.5H377V86.5H432V36Z" fill="#000310"/>
<path d="M368.5 36C368.667 51.3333 368.9 81.9 368.5 81.5C368.403 81.4029 366.518 81.3236 363.5 81.259C354.079 81.0574 333.613 81 322 81L317.5 86H373V39.5L368.5 36Z" fill="#020305"/>
<path fill-rule="evenodd" clip-rule="evenodd" d="M143.5 115.5H63V149.5H143.5V115.5ZM118.5 130H85V137.5H118.5V130Z" fill="#B6B4B4"/>
<path d="M85 130H118.5V137.5H85V130Z" fill="#4C4B4B"/>
<path d="M85 169.5H118.5V177H85V169.5Z" fill="#4C4B4B"/>
<path fill-rule="evenodd" clip-rule="evenodd" d="M63 189.5H143.5V156H63V189.5ZM118.5 169.5H85V177H118.5V169.5Z" fill="#B6B4B4"/>
<path d="M85 210H118.5V217.5H85V210Z" fill="#4C4B4B"/>
<path fill-rule="evenodd" clip-rule="evenodd" d="M63 229.5H143.5V197H63V229.5ZM118.5 210H85V217.5H118.5V210Z" fill="#B6B4B4"/>
<path d="M63 197H143.5V189.5H63V197Z" fill="#939393"/>
<path d="M63 156H143.5V149.5H63V156Z" fill="#939393"/>
<path fill-rule="evenodd" clip-rule="evenodd" d="M455.5 110H57.5V319.5L456.472 316.5L455.5 110ZM63 115.5H143.5H150H225.5H231H294H298.5H363H368.5H409H415H449.5V149.5V156V189.5V195.5V229.5V236.5V270.5V278V313.5H415H409.5H368.5H363H298.5H294H231H225.5H150H143.5H63V277.5V270.5V236.5V229.5V197V189.5V156V149.5V115.5Z" fill="#41403F"/>
<path fill-rule="evenodd" clip-rule="evenodd" d="M294 149.5H231V156H294V189.5H231V195.5H294V229.5H231V236.5H294V270.5H231V277.5H294V313.5H298.5V277.5H363V313.5H368.5V277.5H409.5V313.5H415V277.5L449.5 278V270.5H415V236.5H449.5V229.5H415V195.5H449.5V189.5H415V156H449.5V149.5H415V115.5H409L409.5 149.5H368.5V115.5H363V149.5H298.5V115.5H294V149.5ZM298.5 189.5V156H363V189.5H298.5ZM298.5 229.5V195.5H363V229.5H298.5ZM298.5 270.5V236.5H363V270.5H298.5ZM409 156H368.5V189.5H409V156ZM409 195.5H368.5V229.5H409V195.5ZM409 236.5H368.5V270.5H409V236.5Z" fill="#939393"/>
<path d="M150 156H225.5V149.5H150V156Z" fill="#0E1C3D"/>
<path d="M150 197H225.5V189.5H150V197Z" fill="#939393"/>
<path d="M150 236.5H225.5V229.5H150V236.5Z" fill="#939393"/>
<path d="M150 277.5H225.5V270.5H150V277.5Z" fill="#939393"/>
<path d="M150 313.5H225.5V277.5H150V313.5Z" fill="#B6CEAE"/>
<path d="M150 270.5H225.5V236.5H150V270.5Z" fill="#B6CEAE"/>
<path d="M150 229.5H225.5V197H150V229.5Z" fill="#B6CEAE"/>
<path d="M150 189.5H225.5V156H150V189.5Z" fill="#B6CEAE"/>
<path fill-rule="evenodd" clip-rule="evenodd" d="M63 270.5H143.5V236.5H63V270.5ZM118.5 251H85V258.5H118.5V251Z" fill="#B6B4B4"/>
<path d="M63 277.5H143.5V270.5H63V277.5Z" fill="#939393"/>
<path fill-rule="evenodd" clip-rule="evenodd" d="M63 313.5H143.5V277.5H63V313.5ZM118.5 291H85V298.5H118.5V291Z" fill="#B6B4B4"/>
<path d="M85 291H118.5V298.5H85V291Z" fill="#4C4B4B"/>
<path d="M85 251H118.5V258.5H85V251Z" fill="#4C4B4B"/>
<path d="M63 236.5H143.5V229.5H63V236.5Z" fill="#939393"/>
<path d="M294 156H231V189.5H294V156Z" fill="#E7E7E7"/>
<path d="M231 229.5H294V195.5H231V229.5Z" fill="#E7E7E7"/>
<path d="M294 236.5H231V270.5H294V236.5Z" fill="#E7E7E7"/>
<path d="M231 277.5V313.5H294V277.5H231Z" fill="#E7E7E7"/>
<path d="M298.5 277.5V313.5H363V277.5H298.5Z" fill="#E7E7E7"/>
<path d="M298.5 236.5V270.5H363V236.5H298.5Z" fill="#E7E7E7"/>
<path d="M409.5 277.5H368.5V313.5H409.5V277.5Z" fill="#E7E7E7"/>
<path d="M368.5 236.5H409V270.5H368.5V236.5Z" fill="#E7E7E7"/>
<path d="M449.5 236.5H415V270.5H449.5V236.5Z" fill="#E7E7E7"/>
<path d="M415 313.5H449.5V278L415 277.5V313.5Z" fill="#E7E7E7"/>
<path d="M449.5 195.5H415V229.5H449.5V195.5Z" fill="#E7E7E7"/>
<path d="M368.5 195.5H409V229.5H368.5V195.5Z" fill="#E7E7E7"/>
<path d="M298.5 195.5V229.5H363V195.5H298.5Z" fill="#E7E7E7"/>
<path d="M298.5 156V189.5H363V156H298.5Z" fill="#E7E7E7"/>
<path d="M368.5 156H409V189.5H368.5V156Z" fill="#E7E7E7"/>
<path d="M449.5 156H415V189.5H449.5V156Z" fill="#E7E7E7"/>
<path d="M225.5 115.5H150V149.5H225.5V115.5Z" fill="#0436B9"/>
<path d="M57.5 319.5V325.5L456.5 322.5L456.472 316.5L57.5 319.5Z" fill="#D9D9D9"/>
<path d="M32.5 30H37.5V23.5H36V25H34.5V26.5H33V28H32V30H32.5Z" fill="#D9D9D9"/>
<path d="M231 115.5V149.5H294V115.5H231Z" fill="#E7E7E7"/>
<path d="M298.5 115.5V149.5H363V115.5H298.5Z" fill="#E7E7E7"/>
<path d="M368.5 115.5V149.5H409.5L409 115.5H368.5Z" fill="#E7E7E7"/>
<path d="M449.5 115.5H415V149.5H449.5V115.5Z" fill="#E7E7E7"/>
<path d="M427 36L422 41V81.259H427V36Z" fill="#D9D9D9"/>
<path d="M225.5 189.5V156H231V189.5V195.5V229.5V236.5V270.5V277.5V313.5H225.5V277.5V270.5V236.5V229.5V197V189.5Z" fill="#939393"/>
<path d="M231 115.5H225.5V149.5V156H231V149.5V115.5Z" fill="#0E1C3D"/>
<path d="M150 313.5H143.5V277.5V270.5V236.5V229.5V197V189.5V156H150V189.5V197V229.5V236.5V270.5V277.5V313.5Z" fill="#939393"/>
<path d="M150 115.5H143.5V149.5V156H150V149.5V115.5Z" fill="#0E1C3D"/>
<path d="M32 381.5H26V26.5H32V21.5H37.5V16H497V21.5M32 381.5V389H506V26.5H500.5M32 381.5H32.5M500.5 26.5V21.5H497M500.5 26.5V382H488M497 21.5H496V22.5H495V23.5H37.5M32.5 381.5V375.5V92.5M32.5 381.5H38V375.5M38 375.5H44.5M38 375.5L37.5 92.5M44.5 375.5V382H488M44.5 375.5V97H50.5V92.5M32.5 92.5H37.5M32.5 92.5V30M37.5 92.5H50.5M37.5 92.5V35H43.5V30H494V92.5H488M50.5 92.5H488M32.5 30H37.5V23.5M32.5 30H32V28H33V26.5H34.5V25H36V23.5H37.5M488 92.5V382M317.5 36H368.5L373 39.5V86H317.5V36C317.9 36 351.667 36 368.5 36M368.5 36C368.667 51.3333 368.9 81.9 368.5 81.5C368.403 81.4029 366.518 81.3236 363.5 81.259M368.5 36L363.5 41M322 81V41H363.5M322 81C333.613 81 354.079 81.0574 363.5 81.259M322 81L317.5 86M363.5 41V81.259M427 36V35.5C411 35.6667 378.6 35.9 377 35.5V58.3795V81.259M427 36H432V86.5H377V81.259M427 36L422 41M427 36V81.259H422M377 81.259H382.5M382.5 81.259V41H422M382.5 81.259H422M422 41V81.259M357.5 69H329.5V75.5H357.5V69C348.333 69 329.9 69 329.5 69M437 86.5H491.5V36.5H487.5V35.5H437V86.5ZM482 40.5C482.694 40.5 483.363 40.5 484 40.5L487.5 36.5M487.5 36.5V83.5L482 81M437 86.5L443 81M443 81V40.5C443.381 40.5 468.168 40.5 482 40.5M443 40.5H482M484 40.5H482M482 40.5V81M482 81H443M456.472 316.5L456.5 322.5L57.5 325.5V319.5V110H455.5L456.472 316.5ZM57.5 319.5L456.472 316.5M449.5 278V313.5H409.5M449.5 313.5H415M118.5 130H85V137.5H118.5V130C108 130 86.6 130 85 130M143.5 115.5H63V149.5M143.5 115.5H150M143.5 115.5V149.5M143.5 313.5H63V277.5M143.5 313.5H150M143.5 313.5V277.5M150 313.5H225.5M150 313.5V277.5M150 115.5H225.5M150 115.5V149.5M225.5 115.5H231M225.5 115.5V149.5M225.5 313.5H231M225.5 313.5V277.5M231 115.5V149.5M231 115.5H294M231 313.5V277.5M231 313.5H294M150 277.5H225.5M150 277.5V270.5M225.5 277.5V270.5M225.5 270.5H150M225.5 270.5V236.5M150 270.5V236.5M150 236.5H225.5M150 236.5V229.5M225.5 236.5V229.5M225.5 229.5H150M225.5 229.5V197M150 229.5V197M150 197H225.5M150 197V189.5M225.5 197V189.5M225.5 189.5H150M225.5 189.5V156M150 189.5V156M150 156H225.5M150 156V149.5M150 156H143.5M225.5 156V149.5M225.5 156H231M225.5 149.5H150M63 277.5C65 277.5 117.5 277.5 143.5 277.5M63 277.5V270.5M63 277.5H143.5M143.5 277.5V270.5M143.5 270.5H63M143.5 270.5V236.5M63 270.5V236.5M63 236.5H143.5M63 236.5V229.5M143.5 236.5V229.5M143.5 229.5H63M143.5 229.5V197M63 229.5V197M63 197H143.5M63 197V189.5M143.5 197V189.5M143.5 189.5H63M143.5 189.5V156M63 189.5V156M63 156H143.5M63 156V149.5M143.5 156V149.5M143.5 149.5H63M231 149.5H294V115.5M231 149.5V156M294 115.5H298.5M298.5 115.5V149.5H363V115.5M298.5 115.5H363M231 156H294V189.5H231M231 156V189.5M231 189.5V195.5M231 229.5H294V195.5H231M231 229.5V195.5M231 229.5V236.5M231 236.5H294V270.5H231M231 236.5V270.5M231 270.5V277.5M231 277.5H294V313.5M294 313.5H298.5M298.5 313.5V277.5H363V313.5M298.5 313.5H363M363 115.5H368.5M368.5 115.5V149.5H409.5L409 115.5M368.5 115.5H409M409 115.5H415M415 115.5H449.5V149.5M415 115.5V149.5H449.5M449.5 149.5V156M449.5 156H415V189.5H449.5M449.5 156V189.5M449.5 189.5V195.5M363 313.5H368.5M409.5 313.5V277.5H368.5V313.5M409.5 313.5H368.5M409.5 313.5H415M449.5 195.5H415V229.5H449.5M449.5 195.5V229.5M449.5 229.5V236.5M449.5 236.5H415V270.5H449.5M449.5 236.5V278M449.5 236.5V270.5M449.5 270.5V278M449.5 278L415 277.5V313.5M388 74.5H416V46.5H388V74.5ZM393 52.5H411V69.5H393V52.5ZM449.5 47H455.5V52H460V55.5H461.5V57H464V55.5H465.5V52H469.5V47H475.5V53H472.5V55.5H471.5V57H469.5V59H466.5V63H469.5V65H471.5V67H472.5V69H475.5V75H469.5V70H468.5V69H465.5V66H464.5V65H461.5V66H460.5V67H459.5V69H455.5V75H449.5V69H452.5V67H453.5V66H454.5V65H455.5V63H458.5V59H457.5V58H456.5V57H454.5V56H453.5V54H452.5V53H449.5V47ZM85 169.5H118.5V177H85V169.5ZM85 210H118.5V217.5H85V210ZM85 251H118.5V258.5H85V251ZM85 291H118.5V298.5H85V291ZM298.5 156V189.5H363V156H298.5ZM298.5 195.5V229.5H363V195.5H298.5ZM298.5 236.5V270.5H363V236.5H298.5ZM368.5 156H409V189.5H368.5V156ZM368.5 195.5H409V229.5H368.5V195.5ZM368.5 236.5H409V270.5H368.5V236.5Z" stroke="black"/>
<path fill-rule="evenodd" clip-rule="evenodd" d="M365.5 208.5H359.5V218.5H360.5V219.5H364.5V218.5H365.5V208.5ZM378.5 230.5H372.5V240.5H378.5V230.5Z" fill="#1D4820"/>
<path d="M490.5 220V215H484.5V208.5H479.5V204H475.5V198.5H470.5V193H464.5V186.5H460V181.5H457V220H490.5Z" fill="#F6F6F6"/>
<path fill-rule="evenodd" clip-rule="evenodd" d="M501.5 389V384.5H505.5V222H498.5V213.5H493V206.5H487.5V198.5H483V192H477V186.5H471.5V180.5H465.5V175H461V170H457.5V167H324V171.5H319L320.5 384.5H324.5V389H501.5ZM448 176H328V379.5H496V228H451.5V222H448V176ZM490.5 215V220H457V181.5H460V186.5H464.5V193H470.5V198.5H475.5V204H479.5V208.5H484.5V215H490.5Z" fill="black"/>
<path d="M393 264H476.5V272H393V264Z" fill="#0548BD"/>
<path d="M393 290H476.5V298H393V290Z" fill="#0443AC"/>
<path d="M393 316.5H476.5V324.5H393V316.5Z" fill="#0548BD"/>
<path d="M393 343H476.5V351H393V343Z" fill="#0548BD"/>
<path d="M372.5 230.5H378.5V240.5H372.5V230.5Z" fill="white"/>
<path d="M359.5 208.5H365.5V218.5H364.5V219.5H360.5V218.5H359.5V208.5Z" fill="white"/>
<path fill-rule="evenodd" clip-rule="evenodd" d="M359.5 208.5H365.5V218.5H364.5V219.5H360.5V218.5H359.5V208.5ZM372.5 230.5H378.5V240.5H372.5V230.5Z" fill="#F6F6F6"/>
<path fill-rule="evenodd" clip-rule="evenodd" d="M328 176H448V222H451.5V228H496V379.5H328V176ZM371 192H363V199H355.5V203H354.5V204H351.5V206.5H348.5V220.5H355V227H364.5V240.5H357.5V235H348.5V244.5H351.5V245.5H354.5V249.5H363.5V257.5H371.5V249.5H379.5V244H382.5V242H386.5V228H381V222.5H377V219.5H371V208H378V214H387V203.5H381V199H371V192ZM476.5 264H393V272H476.5V264ZM476.5 290H393V298H476.5V290ZM476.5 316.5H393V324.5H476.5V316.5ZM476.5 343H393V351H476.5V343Z" fill="white"/>
<path fill-rule="evenodd" clip-rule="evenodd" d="M363 192H371V199H381V203.5H387V214H378V208H371V219.5H377V222.5H381V228H386.5V242H382.5V244H379.5V249.5H371.5V257.5H363.5V249.5H354.5V245.5H351.5V244.5H348.5V235H357.5V240.5H364.5V227H355V220.5H348.5V206.5H351.5V204H354.5V203H355.5V199H363V192ZM365.5 208.5H359.5V218.5H360.5V219.5H364.5V218.5H365.5V208.5ZM378.5 230.5H372.5V240.5H378.5V230.5Z" fill="#204A23"/>
<path d="M348.5 206.5V220.5H355V227H364.5V240.5H357.5V235H348.5V244.5H351.5V245.5H354.5V249.5H363.5V257.5H371.5V249.5H379.5V244H382.5V242H386.5V228H381V222.5H377V219.5H371V208H378V214H387V203.5H381V199H371V192H363V199H355.5V203H354.5V204H351.5V206.5H348.5C348.5 210.833 348.5 220.1 348.5 220.5M378.5 230.5H372.5V240.5H378.5V230.5C376.667 230.5 372.9 230.5 372.5 230.5M328 176H448V222H451.5V228H496V379.5H328V176ZM501.5 389V384.5H505.5V222H498.5V213.5H493V206.5H487.5V198.5H483V192H477V186.5H471.5V180.5H465.5V175H461V170H457.5V167H324V171.5H319L320.5 384.5H324.5V389H501.5ZM490.5 220V215H484.5V208.5H479.5V204H475.5V198.5H470.5V193H464.5V186.5H460V181.5H457V220H490.5ZM359.5 208.5H365.5V218.5H364.5V219.5H360.5V218.5H359.5V208.5ZM393 264H476.5V272H393V264ZM393 290H476.5V298H393V290ZM393 316.5H476.5V324.5H393V316.5ZM393 343H476.5V351H393V343Z" stroke="black"/>
<path d="M303.305 384.969H423.476V415.484H303.305V384.969ZM279.27 388.359H303.305V412.094H279.27V388.359ZM423.476 388.359H447.511V412.094H423.476V388.359ZM260.043 391.75H279.27V408.703H260.043V391.75ZM447.511 391.75H466.738V408.703H447.511V391.75ZM255.236 395.141H260.043V405.312H255.236V395.141ZM466.738 395.141H471.545V405.312H466.738V395.141ZM250.429 398.531H255.236V401.922H250.429V398.531ZM471.545 398.531H476.352V401.922H471.545V398.531Z" fill="#0B1C3A"/>
<path d="M284.077 381.578H442.704V384.969H284.077V381.578ZM255.236 384.969H303.305V388.359H255.236V384.969ZM423.476 384.969H471.545V388.359H423.476V384.969ZM240.816 388.359H279.27V391.75H240.816V388.359ZM447.511 388.359H485.966V391.75H447.511V388.359ZM226.395 391.75H260.043V395.141H226.395V391.75ZM466.738 391.75H500.386V395.141H466.738V391.75ZM221.588 395.141H255.236V398.531H221.588V395.141ZM471.545 395.141H505.193V398.531H471.545V395.141ZM216.781 398.531H250.429V401.922H216.781V398.531ZM476.352 398.531H510V401.922H476.352V398.531ZM221.588 401.922H255.236V405.312H221.588V401.922ZM471.545 401.922H505.193V405.312H471.545V401.922ZM226.395 405.312H260.043V408.703H226.395V405.312ZM466.738 405.312H500.386V408.703H466.738V405.312ZM240.816 408.703H279.27V412.094H240.816V408.703ZM447.511 408.703H485.966V412.094H447.511V408.703ZM255.236 412.094H303.305V415.484H255.236V412.094ZM423.476 412.094H471.545V415.484H423.476V412.094ZM284.077 415.484H442.704V418.875H284.077V415.484Z" fill="#132A55"/>
<path d="M257.469 334.109H308.328V337.5H257.469V334.109ZM243.906 337.5H260.859V340.891H243.906V337.5ZM304.938 337.5H321.891V340.891H304.938V337.5ZM237.125 340.891H247.297V344.281H237.125V340.891ZM318.5 340.891H328.672V344.281H318.5V340.891ZM230.344 344.281H240.516V347.672H230.344V344.281ZM325.281 344.281H335.453V347.672H325.281V344.281ZM226.953 347.672H233.734V351.062H226.953V347.672ZM332.062 347.672H338.844V351.062H332.062V347.672ZM226.953 351.062H230.344V357.844H226.953V351.062ZM335.453 351.062H338.844V357.844H335.453V351.062ZM223.562 354.453H226.953V381.578H223.562V354.453ZM338.844 354.453H342.234V381.578H338.844V354.453ZM226.953 378.188H230.344V388.359H226.953V378.188ZM335.453 378.188H338.844V388.359H335.453V378.188ZM230.344 384.969H233.734V391.75H230.344V384.969ZM332.062 384.969H335.453V391.75H332.062V384.969ZM233.734 388.359H240.516V391.75H233.734V388.359ZM325.281 388.359H332.062V391.75H325.281V388.359ZM237.125 391.75H247.297V395.141H237.125V391.75ZM318.5 391.75H328.672V395.141H318.5V391.75ZM243.906 395.141H260.859V398.531H243.906V395.141ZM304.938 395.141H321.891V398.531H304.938V395.141ZM257.469 398.531H308.328V401.922H257.469V398.531Z" fill="black"/>
<path d="M226.953 368.016H230.344V378.188H226.953V368.016ZM335.453 368.016H338.844V378.188H335.453V368.016ZM230.344 374.797H233.734V384.969H230.344V374.797ZM332.062 374.797H335.453V384.969H332.062V374.797ZM233.734 384.969H240.516V388.359H233.734V384.969ZM325.281 384.969H332.062V388.359H325.281V384.969ZM247.297 391.75H250.688V395.141H247.297V391.75ZM315.109 391.75H318.5V395.141H315.109V391.75ZM260.859 395.141H267.641V398.531H260.859V395.141ZM298.156 395.141H304.938V398.531H298.156V395.141Z" fill="#7A4600"/>
<path d="M226.953 361.234H230.344V368.016H226.953V361.234ZM335.453 361.234H338.844V368.016H335.453V361.234ZM230.344 371.406H233.734V374.797H230.344V371.406ZM332.062 371.406H335.453V374.797H332.062V371.406ZM233.734 378.188H237.125V384.969H233.734V378.188ZM328.672 378.188H332.062V384.969H328.672V378.188ZM237.125 381.578H240.516V384.969H237.125V381.578ZM325.281 381.578H328.672V384.969H325.281V381.578ZM240.516 388.359H250.688V391.75H240.516V388.359ZM315.109 388.359H325.281V391.75H315.109V388.359ZM250.688 391.75H267.641V395.141H250.688V391.75ZM298.156 391.75H315.109V395.141H298.156V391.75ZM267.641 395.141H298.156V398.531H267.641V395.141Z" fill="#A86A00"/>
<path d="M260.859 337.5H304.938V340.891H260.859V337.5ZM247.297 340.891H260.859V344.281H247.297V340.891ZM304.938 340.891H318.5V344.281H304.938V340.891ZM240.516 344.281H247.297V347.672H240.516V344.281ZM318.5 344.281H325.281V347.672H318.5V344.281ZM233.734 347.672H240.516V351.062H233.734V347.672ZM325.281 347.672H332.062V351.062H325.281V347.672ZM230.344 351.062H237.125V354.453H230.344V351.062ZM328.672 351.062H335.453V354.453H328.672V351.062ZM230.344 354.453H233.734V371.406H230.344V354.453ZM332.062 354.453H335.453V371.406H332.062V354.453ZM226.953 357.844H230.344V361.234H226.953V357.844ZM335.453 357.844H338.844V361.234H335.453V357.844ZM233.734 364.625H237.125V368.016H233.734V364.625ZM328.672 364.625H332.062V368.016H328.672V364.625ZM233.734 371.406H237.125V378.188H233.734V371.406ZM328.672 371.406H332.062V378.188H328.672V371.406ZM237.125 374.797H240.516V381.578H237.125V374.797ZM325.281 374.797H328.672V381.578H325.281V374.797ZM240.516 381.578H247.297V388.359H240.516V381.578ZM318.5 381.578H325.281V388.359H318.5V381.578ZM247.297 384.969H260.859V388.359H247.297V384.969ZM304.938 384.969H318.5V388.359H304.938V384.969ZM250.688 388.359H315.109V391.75H250.688V388.359ZM267.641 391.75H298.156V395.141H267.641V391.75Z" fill="#D99400"/>
<path d="M260.859 340.891H304.938V344.281H260.859V340.891ZM247.297 344.281H257.469V347.672H247.297V344.281ZM308.328 344.281H318.5V347.672H308.328V344.281ZM240.516 347.672H250.688V351.062H240.516V347.672ZM315.109 347.672H325.281V351.062H315.109V347.672ZM237.125 351.062H243.906V354.453H237.125V351.062ZM321.891 351.062H328.672V354.453H321.891V351.062ZM233.734 354.453H240.516V364.625H233.734V354.453ZM325.281 354.453H332.062V364.625H325.281V354.453ZM237.125 364.625H243.906V371.406H237.125V364.625ZM321.891 364.625H328.672V371.406H321.891V364.625ZM233.734 368.016H237.125V371.406H233.734V368.016ZM243.906 368.016H250.688V371.406H243.906V368.016ZM315.109 368.016H321.891V371.406H315.109V368.016ZM328.672 368.016H332.062V371.406H328.672V368.016ZM237.125 371.406H240.516V374.797H237.125V371.406ZM247.297 371.406H257.469V374.797H247.297V371.406ZM308.328 371.406H318.5V374.797H308.328V371.406ZM325.281 371.406H328.672V374.797H325.281V371.406ZM240.516 374.797H243.906V381.578H240.516V374.797ZM260.859 374.797H304.938V378.188H260.859V374.797ZM321.891 374.797H325.281V381.578H321.891V374.797ZM243.906 378.188H247.297V381.578H243.906V378.188ZM311.719 378.188H321.891V381.578H311.719V378.188ZM247.297 381.578H250.688V384.969H247.297V381.578ZM264.25 381.578H318.5V384.969H264.25V381.578ZM260.859 384.969H304.938V388.359H260.859V384.969Z" fill="#F0B81A"/>
<path d="M267.641 344.281H308.328V347.672H267.641V344.281ZM271.031 347.672H315.109V351.062H271.031V347.672ZM274.422 351.062H321.891V368.016H274.422V351.062ZM267.641 354.453H274.422V374.797H267.641V354.453ZM321.891 354.453H325.281V364.625H321.891V354.453ZM240.516 357.844H267.641V364.625H240.516V357.844ZM243.906 364.625H267.641V368.016H243.906V364.625ZM250.688 368.016H267.641V371.406H250.688V368.016ZM274.422 368.016H315.109V371.406H274.422V368.016ZM240.516 371.406H247.297V374.797H240.516V371.406ZM257.469 371.406H267.641V374.797H257.469V371.406ZM274.422 371.406H308.328V374.797H274.422V371.406ZM318.5 371.406H325.281V374.797H318.5V371.406ZM243.906 374.797H247.297V378.188H243.906V374.797ZM304.938 374.797H321.891V378.188H304.938V374.797ZM264.25 378.188H311.719V381.578H264.25V378.188Z" fill="#FFD94A"/>
<path d="M257.469 344.281H267.641V357.844H257.469V344.281ZM250.688 347.672H257.469V357.844H250.688V347.672ZM267.641 347.672H271.031V354.453H267.641V347.672ZM243.906 351.062H250.688V357.844H243.906V351.062ZM271.031 351.062H274.422V354.453H271.031V351.062ZM240.516 354.453H243.906V357.844H240.516V354.453ZM247.297 374.797H260.859V381.578H247.297V374.797ZM260.859 378.188H264.25V384.969H260.859V378.188ZM250.688 381.578H260.859V384.969H250.688V381.578Z" fill="#FFF3AD"/>
<path d="M257.469 313.766H308.328V317.156H257.469V313.766ZM243.906 317.156H260.859V320.547H243.906V317.156ZM304.938 317.156H321.891V320.547H304.938V317.156ZM237.125 320.547H247.297V323.938H237.125V320.547ZM318.5 320.547H328.672V323.938H318.5V320.547ZM230.344 323.938H240.516V327.328H230.344V323.938ZM325.281 323.938H335.453V327.328H325.281V323.938ZM226.953 327.328H233.734V330.719H226.953V327.328ZM332.062 327.328H338.844V330.719H332.062V327.328ZM226.953 330.719H230.344V337.5H226.953V330.719ZM335.453 330.719H338.844V337.5H335.453V330.719ZM223.562 334.109H226.953V361.234H223.562V334.109ZM338.844 334.109H342.234V361.234H338.844V334.109ZM226.953 357.844H230.344V368.016H226.953V357.844ZM335.453 357.844H338.844V368.016H335.453V357.844ZM230.344 364.625H233.734V371.406H230.344V364.625ZM332.062 364.625H335.453V371.406H332.062V364.625ZM233.734 368.016H240.516V371.406H233.734V368.016ZM325.281 368.016H332.062V371.406H325.281V368.016ZM237.125 371.406H247.297V374.797H237.125V371.406ZM318.5 371.406H328.672V374.797H318.5V371.406ZM243.906 374.797H260.859V378.188H243.906V374.797ZM304.938 374.797H321.891V378.188H304.938V374.797ZM257.469 378.188H308.328V381.578H257.469V378.188Z" fill="black"/>
<path d="M226.953 347.672H230.344V357.844H226.953V347.672ZM335.453 347.672H338.844V357.844H335.453V347.672ZM230.344 354.453H233.734V364.625H230.344V354.453ZM332.062 354.453H335.453V364.625H332.062V354.453ZM233.734 364.625H240.516V368.016H233.734V364.625ZM325.281 364.625H332.062V368.016H325.281V364.625ZM247.297 371.406H250.688V374.797H247.297V371.406ZM315.109 371.406H318.5V374.797H315.109V371.406ZM260.859 374.797H267.641V378.188H260.859V374.797ZM298.156 374.797H304.938V378.188H298.156V374.797Z" fill="#7A4600"/>
<path d="M226.953 340.891H230.344V347.672H226.953V340.891ZM335.453 340.891H338.844V347.672H335.453V340.891ZM230.344 351.062H233.734V354.453H230.344V351.062ZM332.062 351.062H335.453V354.453H332.062V351.062ZM233.734 357.844H237.125V364.625H233.734V357.844ZM328.672 357.844H332.062V364.625H328.672V357.844ZM237.125 361.234H240.516V364.625H237.125V361.234ZM325.281 361.234H328.672V364.625H325.281V361.234ZM240.516 368.016H250.688V371.406H240.516V368.016ZM315.109 368.016H325.281V371.406H315.109V368.016ZM250.688 371.406H267.641V374.797H250.688V371.406ZM298.156 371.406H315.109V374.797H298.156V371.406ZM267.641 374.797H298.156V378.188H267.641V374.797Z" fill="#A86A00"/>
<path d="M260.859 317.156H304.938V320.547H260.859V317.156ZM247.297 320.547H260.859V323.938H247.297V320.547ZM304.938 320.547H318.5V323.938H304.938V320.547ZM240.516 323.938H247.297V327.328H240.516V323.938ZM318.5 323.938H325.281V327.328H318.5V323.938ZM233.734 327.328H240.516V330.719H233.734V327.328ZM325.281 327.328H332.062V330.719H325.281V327.328ZM230.344 330.719H237.125V334.109H230.344V330.719ZM328.672 330.719H335.453V334.109H328.672V330.719ZM230.344 334.109H233.734V351.062H230.344V334.109ZM332.062 334.109H335.453V351.062H332.062V334.109ZM226.953 337.5H230.344V340.891H226.953V337.5ZM335.453 337.5H338.844V340.891H335.453V337.5ZM233.734 344.281H237.125V347.672H233.734V344.281ZM328.672 344.281H332.062V347.672H328.672V344.281ZM233.734 351.062H237.125V357.844H233.734V351.062ZM328.672 351.062H332.062V357.844H328.672V351.062ZM237.125 354.453H240.516V361.234H237.125V354.453ZM325.281 354.453H328.672V361.234H325.281V354.453ZM240.516 361.234H247.297V368.016H240.516V361.234ZM318.5 361.234H325.281V368.016H318.5V361.234ZM247.297 364.625H260.859V368.016H247.297V364.625ZM304.938 364.625H318.5V368.016H304.938V364.625ZM250.688 368.016H315.109V371.406H250.688V368.016ZM267.641 371.406H298.156V374.797H267.641V371.406Z" fill="#D99400"/>
<path d="M260.859 320.547H304.938V323.938H260.859V320.547ZM247.297 323.938H257.469V327.328H247.297V323.938ZM308.328 323.938H318.5V327.328H308.328V323.938ZM240.516 327.328H250.688V330.719H240.516V327.328ZM315.109 327.328H325.281V330.719H315.109V327.328ZM237.125 330.719H243.906V334.109H237.125V330.719ZM321.891 330.719H328.672V334.109H321.891V330.719ZM233.734 334.109H240.516V344.281H233.734V334.109ZM325.281 334.109H332.062V344.281H325.281V334.109ZM237.125 344.281H243.906V351.062H237.125V344.281ZM321.891 344.281H328.672V351.062H321.891V344.281ZM233.734 347.672H237.125V351.062H233.734V347.672ZM243.906 347.672H250.688V351.062H243.906V347.672ZM315.109 347.672H321.891V351.062H315.109V347.672ZM328.672 347.672H332.062V351.062H328.672V347.672ZM237.125 351.062H240.516V354.453H237.125V351.062ZM247.297 351.062H257.469V354.453H247.297V351.062ZM308.328 351.062H318.5V354.453H308.328V351.062ZM325.281 351.062H328.672V354.453H325.281V351.062ZM240.516 354.453H243.906V361.234H240.516V354.453ZM260.859 354.453H304.938V357.844H260.859V354.453ZM321.891 354.453H325.281V361.234H321.891V354.453ZM243.906 357.844H247.297V361.234H243.906V357.844ZM311.719 357.844H321.891V361.234H311.719V357.844ZM247.297 361.234H250.688V364.625H247.297V361.234ZM264.25 361.234H318.5V364.625H264.25V361.234ZM260.859 364.625H304.938V368.016H260.859V364.625Z" fill="#F0B81A"/>
<path d="M267.641 323.938H308.328V327.328H267.641V323.938ZM271.031 327.328H315.109V330.719H271.031V327.328ZM274.422 330.719H321.891V347.672H274.422V330.719ZM267.641 334.109H274.422V354.453H267.641V334.109ZM321.891 334.109H325.281V344.281H321.891V334.109ZM240.516 337.5H267.641V344.281H240.516V337.5ZM243.906 344.281H267.641V347.672H243.906V344.281ZM250.688 347.672H267.641V351.062H250.688V347.672ZM274.422 347.672H315.109V351.062H274.422V347.672ZM240.516 351.062H247.297V354.453H240.516V351.062ZM257.469 351.062H267.641V354.453H257.469V351.062ZM274.422 351.062H308.328V354.453H274.422V351.062ZM318.5 351.062H325.281V354.453H318.5V351.062ZM243.906 354.453H247.297V357.844H243.906V354.453ZM304.938 354.453H321.891V357.844H304.938V354.453ZM264.25 357.844H311.719V361.234H264.25V357.844Z" fill="#FFD94A"/>
<path d="M257.469 323.938H267.641V337.5H257.469V323.938ZM250.688 327.328H257.469V337.5H250.688V327.328ZM267.641 327.328H271.031V334.109H267.641V327.328ZM243.906 330.719H250.688V337.5H243.906V330.719ZM271.031 330.719H274.422V334.109H271.031V330.719ZM240.516 334.109H243.906V337.5H240.516V334.109ZM247.297 354.453H260.859V361.234H247.297V354.453ZM260.859 357.844H264.25V364.625H260.859V357.844ZM250.688 361.234H260.859V364.625H250.688V361.234Z" fill="#FFF3AD"/>
<path d="M257.469 293.422H308.328V296.812H257.469V293.422ZM243.906 296.812H260.859V300.203H243.906V296.812ZM304.938 296.812H321.891V300.203H304.938V296.812ZM237.125 300.203H247.297V303.594H237.125V300.203ZM318.5 300.203H328.672V303.594H318.5V300.203ZM230.344 303.594H240.516V306.984H230.344V303.594ZM325.281 303.594H335.453V306.984H325.281V303.594ZM226.953 306.984H233.734V310.375H226.953V306.984ZM332.062 306.984H338.844V310.375H332.062V306.984ZM226.953 310.375H230.344V317.156H226.953V310.375ZM335.453 310.375H338.844V317.156H335.453V310.375ZM223.562 313.766H226.953V340.891H223.562V313.766ZM338.844 313.766H342.234V340.891H338.844V313.766ZM226.953 337.5H230.344V347.672H226.953V337.5ZM335.453 337.5H338.844V347.672H335.453V337.5ZM230.344 344.281H233.734V351.062H230.344V344.281ZM332.062 344.281H335.453V351.062H332.062V344.281ZM233.734 347.672H240.516V351.062H233.734V347.672ZM325.281 347.672H332.062V351.062H325.281V347.672ZM237.125 351.062H247.297V354.453H237.125V351.062ZM318.5 351.062H328.672V354.453H318.5V351.062ZM243.906 354.453H260.859V357.844H243.906V354.453ZM304.938 354.453H321.891V357.844H304.938V354.453ZM257.469 357.844H308.328V361.234H257.469V357.844Z" fill="black"/>
<path d="M226.953 327.328H230.344V337.5H226.953V327.328ZM335.453 327.328H338.844V337.5H335.453V327.328ZM230.344 334.109H233.734V344.281H230.344V334.109ZM332.062 334.109H335.453V344.281H332.062V334.109ZM233.734 344.281H240.516V347.672H233.734V344.281ZM325.281 344.281H332.062V347.672H325.281V344.281ZM247.297 351.062H250.688V354.453H247.297V351.062ZM315.109 351.062H318.5V354.453H315.109V351.062ZM260.859 354.453H267.641V357.844H260.859V354.453ZM298.156 354.453H304.938V357.844H298.156V354.453Z" fill="#7A4600"/>
<path d="M226.953 320.547H230.344V327.328H226.953V320.547ZM335.453 320.547H338.844V327.328H335.453V320.547ZM230.344 330.719H233.734V334.109H230.344V330.719ZM332.062 330.719H335.453V334.109H332.062V330.719ZM233.734 337.5H237.125V344.281H233.734V337.5ZM328.672 337.5H332.062V344.281H328.672V337.5ZM237.125 340.891H240.516V344.281H237.125V340.891ZM325.281 340.891H328.672V344.281H325.281V340.891ZM240.516 347.672H250.688V351.062H240.516V347.672ZM315.109 347.672H325.281V351.062H315.109V347.672ZM250.688 351.062H267.641V354.453H250.688V351.062ZM298.156 351.062H315.109V354.453H298.156V351.062ZM267.641 354.453H298.156V357.844H267.641V354.453Z" fill="#A86A00"/>
<path d="M260.859 296.812H304.938V300.203H260.859V296.812ZM247.297 300.203H260.859V303.594H247.297V300.203ZM304.938 300.203H318.5V303.594H304.938V300.203ZM240.516 303.594H247.297V306.984H240.516V303.594ZM318.5 303.594H325.281V306.984H318.5V303.594ZM233.734 306.984H240.516V310.375H233.734V306.984ZM325.281 306.984H332.062V310.375H325.281V306.984ZM230.344 310.375H237.125V313.766H230.344V310.375ZM328.672 310.375H335.453V313.766H328.672V310.375ZM230.344 313.766H233.734V330.719H230.344V313.766ZM332.062 313.766H335.453V330.719H332.062V313.766ZM226.953 317.156H230.344V320.547H226.953V317.156ZM335.453 317.156H338.844V320.547H335.453V317.156ZM233.734 323.938H237.125V327.328H233.734V323.938ZM328.672 323.938H332.062V327.328H328.672V323.938ZM233.734 330.719H237.125V337.5H233.734V330.719ZM328.672 330.719H332.062V337.5H328.672V330.719ZM237.125 334.109H240.516V340.891H237.125V334.109ZM325.281 334.109H328.672V340.891H325.281V334.109ZM240.516 340.891H247.297V347.672H240.516V340.891ZM318.5 340.891H325.281V347.672H318.5V340.891ZM247.297 344.281H260.859V347.672H247.297V344.281ZM304.938 344.281H318.5V347.672H304.938V344.281ZM250.688 347.672H315.109V351.062H250.688V347.672ZM267.641 351.062H298.156V354.453H267.641V351.062Z" fill="#D99400"/>
<path d="M260.859 300.203H304.938V303.594H260.859V300.203ZM247.297 303.594H257.469V306.984H247.297V303.594ZM308.328 303.594H318.5V306.984H308.328V303.594ZM240.516 306.984H250.688V310.375H240.516V306.984ZM315.109 306.984H325.281V310.375H315.109V306.984ZM237.125 310.375H243.906V313.766H237.125V310.375ZM321.891 310.375H328.672V313.766H321.891V310.375ZM233.734 313.766H240.516V323.938H233.734V313.766ZM325.281 313.766H332.062V323.938H325.281V313.766ZM237.125 323.938H243.906V330.719H237.125V323.938ZM321.891 323.938H328.672V330.719H321.891V323.938ZM233.734 327.328H237.125V330.719H233.734V327.328ZM243.906 327.328H250.688V330.719H243.906V327.328ZM315.109 327.328H321.891V330.719H315.109V327.328ZM328.672 327.328H332.062V330.719H328.672V327.328ZM237.125 330.719H240.516V334.109H237.125V330.719ZM247.297 330.719H257.469V334.109H247.297V330.719ZM308.328 330.719H318.5V334.109H308.328V330.719ZM325.281 330.719H328.672V334.109H325.281V330.719ZM240.516 334.109H243.906V340.891H240.516V334.109ZM260.859 334.109H304.938V337.5H260.859V334.109ZM321.891 334.109H325.281V340.891H321.891V334.109ZM243.906 337.5H247.297V340.891H243.906V337.5ZM311.719 337.5H321.891V340.891H311.719V337.5ZM247.297 340.891H250.688V344.281H247.297V340.891ZM264.25 340.891H318.5V344.281H264.25V340.891ZM260.859 344.281H304.938V347.672H260.859V344.281Z" fill="#F0B81A"/>
<path d="M267.641 303.594H308.328V306.984H267.641V303.594ZM271.031 306.984H315.109V310.375H271.031V306.984ZM274.422 310.375H321.891V327.328H274.422V310.375ZM267.641 313.766H274.422V334.109H267.641V313.766ZM321.891 313.766H325.281V323.938H321.891V313.766ZM240.516 317.156H267.641V323.938H240.516V317.156ZM243.906 323.938H267.641V327.328H243.906V323.938ZM250.688 327.328H267.641V330.719H250.688V327.328ZM274.422 327.328H315.109V330.719H274.422V327.328ZM240.516 330.719H247.297V334.109H240.516V330.719ZM257.469 330.719H267.641V334.109H257.469V330.719ZM274.422 330.719H308.328V334.109H274.422V330.719ZM318.5 330.719H325.281V334.109H318.5V330.719ZM243.906 334.109H247.297V337.5H243.906V334.109ZM304.938 334.109H321.891V337.5H304.938V334.109ZM264.25 337.5H311.719V340.891H264.25V337.5Z" fill="#FFD94A"/>
<path d="M257.469 303.594H267.641V317.156H257.469V303.594ZM250.688 306.984H257.469V317.156H250.688V306.984ZM267.641 306.984H271.031V313.766H267.641V306.984ZM243.906 310.375H250.688V317.156H243.906V310.375ZM271.031 310.375H274.422V313.766H271.031V310.375ZM240.516 313.766H243.906V317.156H240.516V313.766ZM247.297 334.109H260.859V340.891H247.297V334.109ZM260.859 337.5H264.25V344.281H260.859V337.5ZM250.688 340.891H260.859V344.281H250.688V340.891Z" fill="#FFF3AD"/>
<path d="M257.469 273.078H308.328V276.469H257.469V273.078ZM243.906 276.469H260.859V279.859H243.906V276.469ZM304.938 276.469H321.891V279.859H304.938V276.469ZM237.125 279.859H247.297V283.25H237.125V279.859ZM318.5 279.859H328.672V283.25H318.5V279.859ZM230.344 283.25H240.516V286.641H230.344V283.25ZM325.281 283.25H335.453V286.641H325.281V283.25ZM226.953 286.641H233.734V290.031H226.953V286.641ZM332.062 286.641H338.844V290.031H332.062V286.641ZM226.953 290.031H230.344V296.812H226.953V290.031ZM335.453 290.031H338.844V296.812H335.453V290.031ZM223.562 293.422H226.953V320.547H223.562V293.422ZM338.844 293.422H342.234V320.547H338.844V293.422ZM226.953 317.156H230.344V327.328H226.953V317.156ZM335.453 317.156H338.844V327.328H335.453V317.156ZM230.344 323.938H233.734V330.719H230.344V323.938ZM332.062 323.938H335.453V330.719H332.062V323.938ZM233.734 327.328H240.516V330.719H233.734V327.328ZM325.281 327.328H332.062V330.719H325.281V327.328ZM237.125 330.719H247.297V334.109H237.125V330.719ZM318.5 330.719H328.672V334.109H318.5V330.719ZM243.906 334.109H260.859V337.5H243.906V334.109ZM304.938 334.109H321.891V337.5H304.938V334.109ZM257.469 337.5H308.328V340.891H257.469V337.5Z" fill="black"/>
<path d="M226.953 306.984H230.344V317.156H226.953V306.984ZM335.453 306.984H338.844V317.156H335.453V306.984ZM230.344 313.766H233.734V323.938H230.344V313.766ZM332.062 313.766H335.453V323.938H332.062V313.766ZM233.734 323.938H240.516V327.328H233.734V323.938ZM325.281 323.938H332.062V327.328H325.281V323.938ZM247.297 330.719H250.688V334.109H247.297V330.719ZM315.109 330.719H318.5V334.109H315.109V330.719ZM260.859 334.109H267.641V337.5H260.859V334.109ZM298.156 334.109H304.938V337.5H298.156V334.109Z" fill="#7A4600"/>
<path d="M226.953 300.203H230.344V306.984H226.953V300.203ZM335.453 300.203H338.844V306.984H335.453V300.203ZM230.344 310.375H233.734V313.766H230.344V310.375ZM332.062 310.375H335.453V313.766H332.062V310.375ZM233.734 317.156H237.125V323.938H233.734V317.156ZM328.672 317.156H332.062V323.938H328.672V317.156ZM237.125 320.547H240.516V323.938H237.125V320.547ZM325.281 320.547H328.672V323.938H325.281V320.547ZM240.516 327.328H250.688V330.719H240.516V327.328ZM315.109 327.328H325.281V330.719H315.109V327.328ZM250.688 330.719H267.641V334.109H250.688V330.719ZM298.156 330.719H315.109V334.109H298.156V330.719ZM267.641 334.109H298.156V337.5H267.641V334.109Z" fill="#A86A00"/>
<path d="M260.859 276.469H304.938V279.859H260.859V276.469ZM247.297 279.859H260.859V283.25H247.297V279.859ZM304.938 279.859H318.5V283.25H304.938V279.859ZM240.516 283.25H247.297V286.641H240.516V283.25ZM318.5 283.25H325.281V286.641H318.5V283.25ZM233.734 286.641H240.516V290.031H233.734V286.641ZM325.281 286.641H332.062V290.031H325.281V286.641ZM230.344 290.031H237.125V293.422H230.344V290.031ZM328.672 290.031H335.453V293.422H328.672V290.031ZM230.344 293.422H233.734V310.375H230.344V293.422ZM332.062 293.422H335.453V310.375H332.062V293.422ZM226.953 296.812H230.344V300.203H226.953V296.812ZM335.453 296.812H338.844V300.203H335.453V296.812ZM233.734 303.594H237.125V306.984H233.734V303.594ZM328.672 303.594H332.062V306.984H328.672V303.594ZM233.734 310.375H237.125V317.156H233.734V310.375ZM328.672 310.375H332.062V317.156H328.672V310.375ZM237.125 313.766H240.516V320.547H237.125V313.766ZM325.281 313.766H328.672V320.547H325.281V313.766ZM240.516 320.547H247.297V327.328H240.516V320.547ZM318.5 320.547H325.281V327.328H318.5V320.547ZM247.297 323.938H260.859V327.328H247.297V323.938ZM304.938 323.938H318.5V327.328H304.938V323.938ZM250.688 327.328H315.109V330.719H250.688V327.328ZM267.641 330.719H298.156V334.109H267.641V330.719Z" fill="#D99400"/>
<path d="M260.859 279.859H304.938V283.25H260.859V279.859ZM247.297 283.25H257.469V286.641H247.297V283.25ZM308.328 283.25H318.5V286.641H308.328V283.25ZM240.516 286.641H250.688V290.031H240.516V286.641ZM315.109 286.641H325.281V290.031H315.109V286.641ZM237.125 290.031H243.906V293.422H237.125V290.031ZM321.891 290.031H328.672V293.422H321.891V290.031ZM233.734 293.422H240.516V303.594H233.734V293.422ZM325.281 293.422H332.062V303.594H325.281V293.422ZM237.125 303.594H243.906V310.375H237.125V303.594ZM321.891 303.594H328.672V310.375H321.891V303.594ZM233.734 306.984H237.125V310.375H233.734V306.984ZM243.906 306.984H250.688V310.375H243.906V306.984ZM315.109 306.984H321.891V310.375H315.109V306.984ZM328.672 306.984H332.062V310.375H328.672V306.984ZM237.125 310.375H240.516V313.766H237.125V310.375ZM247.297 310.375H257.469V313.766H247.297V310.375ZM308.328 310.375H318.5V313.766H308.328V310.375ZM325.281 310.375H328.672V313.766H325.281V310.375ZM240.516 313.766H243.906V320.547H240.516V313.766ZM260.859 313.766H304.938V317.156H260.859V313.766ZM321.891 313.766H325.281V320.547H321.891V313.766ZM243.906 317.156H247.297V320.547H243.906V317.156ZM311.719 317.156H321.891V320.547H311.719V317.156ZM247.297 320.547H250.688V323.938H247.297V320.547ZM264.25 320.547H318.5V323.938H264.25V320.547ZM260.859 323.938H304.938V327.328H260.859V323.938Z" fill="#F0B81A"/>
<path d="M267.641 283.25H308.328V286.641H267.641V283.25ZM271.031 286.641H315.109V290.031H271.031V286.641ZM274.422 290.031H321.891V306.984H274.422V290.031ZM267.641 293.422H274.422V313.766H267.641V293.422ZM321.891 293.422H325.281V303.594H321.891V293.422ZM240.516 296.812H267.641V303.594H240.516V296.812ZM243.906 303.594H267.641V306.984H243.906V303.594ZM250.688 306.984H267.641V310.375H250.688V306.984ZM274.422 306.984H315.109V310.375H274.422V306.984ZM240.516 310.375H247.297V313.766H240.516V310.375ZM257.469 310.375H267.641V313.766H257.469V310.375ZM274.422 310.375H308.328V313.766H274.422V310.375ZM318.5 310.375H325.281V313.766H318.5V310.375ZM243.906 313.766H247.297V317.156H243.906V313.766ZM304.938 313.766H321.891V317.156H304.938V313.766ZM264.25 317.156H311.719V320.547H264.25V317.156Z" fill="#FFD94A"/>
<path d="M257.469 283.25H267.641V296.812H257.469V283.25ZM250.688 286.641H257.469V296.812H250.688V286.641ZM267.641 286.641H271.031V293.422H267.641V286.641ZM243.906 290.031H250.688V296.812H243.906V290.031ZM271.031 290.031H274.422V293.422H271.031V290.031ZM240.516 293.422H243.906V296.812H240.516V293.422ZM247.297 313.766H260.859V320.547H247.297V313.766ZM260.859 317.156H264.25V323.938H260.859V317.156ZM250.688 320.547H260.859V323.938H250.688V320.547Z" fill="#FFF3AD"/>
<path d="M257.469 252.734H308.328V256.125H257.469V252.734ZM243.906 256.125H260.859V259.516H243.906V256.125ZM304.938 256.125H321.891V259.516H304.938V256.125ZM237.125 259.516H247.297V262.906H237.125V259.516ZM318.5 259.516H328.672V262.906H318.5V259.516ZM230.344 262.906H240.516V266.297H230.344V262.906ZM325.281 262.906H335.453V266.297H325.281V262.906ZM226.953 266.297H233.734V269.688H226.953V266.297ZM332.062 266.297H338.844V269.688H332.062V266.297ZM226.953 269.688H230.344V276.469H226.953V269.688ZM335.453 269.688H338.844V276.469H335.453V269.688ZM223.562 273.078H226.953V300.203H223.562V273.078ZM338.844 273.078H342.234V300.203H338.844V273.078ZM226.953 296.812H230.344V306.984H226.953V296.812ZM335.453 296.812H338.844V306.984H335.453V296.812ZM230.344 303.594H233.734V310.375H230.344V303.594ZM332.062 303.594H335.453V310.375H332.062V303.594ZM233.734 306.984H240.516V310.375H233.734V306.984ZM325.281 306.984H332.062V310.375H325.281V306.984ZM237.125 310.375H247.297V313.766H237.125V310.375ZM318.5 310.375H328.672V313.766H318.5V310.375ZM243.906 313.766H260.859V317.156H243.906V313.766ZM304.938 313.766H321.891V317.156H304.938V313.766ZM257.469 317.156H308.328V320.547H257.469V317.156Z" fill="black"/>
<path d="M226.953 286.641H230.344V296.812H226.953V286.641ZM335.453 286.641H338.844V296.812H335.453V286.641ZM230.344 293.422H233.734V303.594H230.344V293.422ZM332.062 293.422H335.453V303.594H332.062V293.422ZM233.734 303.594H240.516V306.984H233.734V303.594ZM325.281 303.594H332.062V306.984H325.281V303.594ZM247.297 310.375H250.688V313.766H247.297V310.375ZM315.109 310.375H318.5V313.766H315.109V310.375ZM260.859 313.766H267.641V317.156H260.859V313.766ZM298.156 313.766H304.938V317.156H298.156V313.766Z" fill="#7A4600"/>
<path d="M226.953 279.859H230.344V286.641H226.953V279.859ZM335.453 279.859H338.844V286.641H335.453V279.859ZM230.344 290.031H233.734V293.422H230.344V290.031ZM332.062 290.031H335.453V293.422H332.062V290.031ZM233.734 296.812H237.125V303.594H233.734V296.812ZM328.672 296.812H332.062V303.594H328.672V296.812ZM237.125 300.203H240.516V303.594H237.125V300.203ZM325.281 300.203H328.672V303.594H325.281V300.203ZM240.516 306.984H250.688V310.375H240.516V306.984ZM315.109 306.984H325.281V310.375H315.109V306.984ZM250.688 310.375H267.641V313.766H250.688V310.375ZM298.156 310.375H315.109V313.766H298.156V310.375ZM267.641 313.766H298.156V317.156H267.641V313.766Z" fill="#A86A00"/>
<path d="M260.859 256.125H304.938V259.516H260.859V256.125ZM247.297 259.516H260.859V262.906H247.297V259.516ZM304.938 259.516H318.5V262.906H304.938V259.516ZM240.516 262.906H247.297V266.297H240.516V262.906ZM318.5 262.906H325.281V266.297H318.5V262.906ZM233.734 266.297H240.516V269.688H233.734V266.297ZM325.281 266.297H332.062V269.688H325.281V266.297ZM230.344 269.688H237.125V273.078H230.344V269.688ZM277.812 269.688H291.375V273.078H277.812V269.688ZM328.672 269.688H335.453V273.078H328.672V269.688ZM230.344 273.078H233.734V290.031H230.344V273.078ZM274.422 273.078H281.203V276.469H274.422V273.078ZM284.594 273.078H287.984V286.641H284.594V273.078ZM332.062 273.078H335.453V290.031H332.062V273.078ZM226.953 276.469H230.344V279.859H226.953V276.469ZM277.812 276.469H284.594V279.859H277.812V276.469ZM335.453 276.469H338.844V279.859H335.453V276.469ZM277.812 279.859H281.203V286.641H277.812V279.859ZM287.984 279.859H291.375V283.25H287.984V279.859ZM233.734 283.25H237.125V286.641H233.734V283.25ZM274.422 283.25H277.812V286.641H274.422V283.25ZM281.203 283.25H284.594V286.641H281.203V283.25ZM328.672 283.25H332.062V286.641H328.672V283.25ZM233.734 290.031H237.125V296.812H233.734V290.031ZM328.672 290.031H332.062V296.812H328.672V290.031ZM237.125 293.422H240.516V300.203H237.125V293.422ZM325.281 293.422H328.672V300.203H325.281V293.422ZM240.516 300.203H247.297V306.984H240.516V300.203ZM318.5 300.203H325.281V306.984H318.5V300.203ZM247.297 303.594H260.859V306.984H247.297V303.594ZM304.938 303.594H318.5V306.984H304.938V303.594ZM250.688 306.984H315.109V310.375H250.688V306.984ZM267.641 310.375H298.156V313.766H267.641V310.375Z" fill="#D99400"/>
<path d="M260.859 259.516H304.938V262.906H260.859V259.516ZM247.297 262.906H257.469V266.297H247.297V262.906ZM308.328 262.906H318.5V266.297H308.328V262.906ZM240.516 266.297H250.688V269.688H240.516V266.297ZM315.109 266.297H325.281V269.688H315.109V266.297ZM237.125 269.688H243.906V273.078H237.125V269.688ZM321.891 269.688H328.672V273.078H321.891V269.688ZM233.734 273.078H240.516V283.25H233.734V273.078ZM325.281 273.078H332.062V283.25H325.281V273.078ZM237.125 283.25H243.906V290.031H237.125V283.25ZM321.891 283.25H328.672V290.031H321.891V283.25ZM233.734 286.641H237.125V290.031H233.734V286.641ZM243.906 286.641H250.688V290.031H243.906V286.641ZM315.109 286.641H321.891V290.031H315.109V286.641ZM328.672 286.641H332.062V290.031H328.672V286.641ZM237.125 290.031H240.516V293.422H237.125V290.031ZM247.297 290.031H257.469V293.422H247.297V290.031ZM308.328 290.031H318.5V293.422H308.328V290.031ZM325.281 290.031H328.672V293.422H325.281V290.031ZM240.516 293.422H243.906V300.203H240.516V293.422ZM260.859 293.422H304.938V296.812H260.859V293.422ZM321.891 293.422H325.281V300.203H321.891V293.422ZM243.906 296.812H247.297V300.203H243.906V296.812ZM311.719 296.812H321.891V300.203H311.719V296.812ZM247.297 300.203H250.688V303.594H247.297V300.203ZM264.25 300.203H318.5V303.594H264.25V300.203ZM260.859 303.594H304.938V306.984H260.859V303.594Z" fill="#F0B81A"/>
<path d="M267.641 262.906H308.328V266.297H267.641V262.906ZM271.031 266.297H315.109V269.688H271.031V266.297ZM274.422 269.688H277.812V273.078H274.422V269.688ZM291.375 269.688H321.891V286.641H291.375V269.688ZM267.641 273.078H274.422V293.422H267.641V273.078ZM281.203 273.078H284.594V276.469H281.203V273.078ZM287.984 273.078H291.375V279.859H287.984V273.078ZM321.891 273.078H325.281V283.25H321.891V273.078ZM240.516 276.469H267.641V283.25H240.516V276.469ZM274.422 276.469H277.812V283.25H274.422V276.469ZM281.203 279.859H284.594V283.25H281.203V279.859ZM243.906 283.25H267.641V286.641H243.906V283.25ZM287.984 283.25H291.375V293.422H287.984V283.25ZM250.688 286.641H267.641V290.031H250.688V286.641ZM274.422 286.641H287.984V293.422H274.422V286.641ZM291.375 286.641H315.109V290.031H291.375V286.641ZM240.516 290.031H247.297V293.422H240.516V290.031ZM257.469 290.031H267.641V293.422H257.469V290.031ZM291.375 290.031H308.328V293.422H291.375V290.031ZM318.5 290.031H325.281V293.422H318.5V290.031ZM243.906 293.422H247.297V296.812H243.906V293.422ZM304.938 293.422H321.891V296.812H304.938V293.422ZM264.25 296.812H311.719V300.203H264.25V296.812Z" fill="#FFD94A"/>
<path d="M257.469 262.906H267.641V276.469H257.469V262.906ZM250.688 266.297H257.469V276.469H250.688V266.297ZM267.641 266.297H271.031V273.078H267.641V266.297ZM243.906 269.688H250.688V276.469H243.906V269.688ZM271.031 269.688H274.422V273.078H271.031V269.688ZM240.516 273.078H243.906V276.469H240.516V273.078ZM247.297 293.422H260.859V300.203H247.297V293.422ZM260.859 296.812H264.25V303.594H260.859V296.812ZM250.688 300.203H260.859V303.594H250.688V300.203Z" fill="#FFF3AD"/>
<path d="M359.188 300.203H369.359V303.594H359.188V300.203ZM342.234 303.594H362.578V306.984H342.234V303.594ZM365.969 303.594H386.312V306.984H365.969V303.594ZM335.453 306.984H345.625V310.375H335.453V306.984ZM382.922 306.984H393.094V310.375H382.922V306.984ZM332.062 310.375H338.844V313.766H332.062V310.375ZM389.703 310.375H396.484V313.766H389.703V310.375ZM328.672 313.766H335.453V317.156H328.672V313.766ZM393.094 313.766H399.875V317.156H393.094V313.766ZM325.281 317.156H332.062V320.547H325.281V317.156ZM396.484 317.156H403.266V320.547H396.484V317.156ZM321.891 320.547H328.672V323.938H321.891V320.547ZM399.875 320.547H406.656V323.938H399.875V320.547ZM318.5 323.938H325.281V327.328H318.5V323.938ZM403.266 323.938H410.047V327.328H403.266V323.938ZM318.5 327.328H321.891V334.109H318.5V327.328ZM406.656 327.328H410.047V334.109H406.656V327.328ZM315.109 330.719H318.5V351.062H315.109V330.719ZM410.047 330.719H413.438V351.062H410.047V330.719ZM311.719 347.672H315.109V357.844H311.719V347.672ZM413.438 347.672H416.828V357.844H413.438V347.672ZM315.109 354.453H318.5V374.797H315.109V354.453ZM410.047 354.453H413.438V374.797H410.047V354.453ZM318.5 371.406H321.891V381.578H318.5V371.406ZM406.656 371.406H410.047V381.578H406.656V371.406ZM321.891 378.188H325.281V384.969H321.891V378.188ZM403.266 378.188H406.656V384.969H403.266V378.188ZM325.281 381.578H328.672V388.359H325.281V381.578ZM399.875 381.578H403.266V388.359H399.875V381.578ZM328.672 384.969H332.062V391.75H328.672V384.969ZM396.484 384.969H399.875V391.75H396.484V384.969ZM332.062 388.359H335.453V395.141H332.062V388.359ZM393.094 388.359H396.484V395.141H393.094V388.359ZM335.453 391.75H338.844V398.531H335.453V391.75ZM389.703 391.75H393.094V398.531H389.703V391.75ZM338.844 395.141H345.625V398.531H338.844V395.141ZM382.922 395.141H389.703V398.531H382.922V395.141ZM342.234 398.531H362.578V401.922H342.234V398.531ZM365.969 398.531H386.312V401.922H365.969V398.531ZM359.188 401.922H369.359V405.312H359.188V401.922Z" fill="black"/>
<path d="M393.094 323.938H396.484V334.109H393.094V323.938ZM389.703 327.328H393.094V330.719H389.703V327.328ZM396.484 330.719H399.875V344.281H396.484V330.719ZM399.875 334.109H403.266V381.578H399.875V334.109ZM406.656 334.109H410.047V371.406H406.656V334.109ZM362.578 337.5H365.969V368.016H362.578V337.5ZM403.266 337.5H406.656V378.188H403.266V337.5ZM359.188 340.891H362.578V344.281H359.188V340.891ZM365.969 340.891H369.359V344.281H365.969V340.891ZM355.797 344.281H359.188V351.062H355.797V344.281ZM369.359 344.281H372.75V347.672H369.359V344.281ZM359.188 351.062H362.578V354.453H359.188V351.062ZM365.969 351.062H369.359V354.453H365.969V351.062ZM410.047 351.062H413.438V354.453H410.047V351.062ZM369.359 354.453H372.75V361.234H369.359V354.453ZM355.797 357.844H359.188V361.234H355.797V357.844ZM359.188 361.234H362.578V364.625H359.188V361.234ZM365.969 361.234H369.359V364.625H365.969V361.234ZM396.484 361.234H399.875V384.969H396.484V361.234ZM393.094 371.406H396.484V388.359H393.094V371.406ZM389.703 374.797H393.094V391.75H389.703V374.797ZM338.844 378.188H342.234V384.969H338.844V378.188ZM386.312 378.188H389.703V395.141H386.312V378.188ZM335.453 381.578H338.844V384.969H335.453V381.578ZM342.234 381.578H345.625V388.359H342.234V381.578ZM382.922 381.578H386.312V395.141H382.922V381.578ZM345.625 384.969H355.797V391.75H345.625V384.969ZM372.75 384.969H382.922V398.531H372.75V384.969ZM355.797 388.359H372.75V398.531H355.797V388.359ZM349.016 391.75H355.797V398.531H349.016V391.75ZM345.625 395.141H349.016V398.531H345.625V395.141ZM362.578 398.531H365.969V401.922H362.578V398.531Z" fill="#A86A00"/>
<path d="M355.797 310.375H372.75V317.156H355.797V310.375ZM379.531 310.375H389.703V320.547H379.531V310.375ZM345.625 313.766H355.797V320.547H345.625V313.766ZM372.75 313.766H379.531V320.547H372.75V313.766ZM389.703 313.766H393.094V327.328H389.703V313.766ZM342.234 317.156H345.625V323.938H342.234V317.156ZM393.094 317.156H396.484V323.938H393.094V317.156ZM335.453 320.547H342.234V327.328H335.453V320.547ZM382.922 320.547H389.703V323.938H382.922V320.547ZM396.484 320.547H399.875V330.719H396.484V320.547ZM332.062 323.938H335.453V334.109H332.062V323.938ZM386.312 323.938H389.703V327.328H386.312V323.938ZM399.875 323.938H403.266V334.109H399.875V323.938ZM335.453 327.328H338.844V330.719H335.453V327.328ZM403.266 327.328H406.656V337.5H403.266V327.328ZM328.672 330.719H332.062V344.281H328.672V330.719ZM325.281 334.109H328.672V381.578H325.281V334.109ZM321.891 344.281H325.281V361.234H321.891V344.281ZM396.484 351.062H399.875V361.234H396.484V351.062ZM393.094 354.453H396.484V371.406H393.094V354.453ZM389.703 357.844H393.094V374.797H389.703V357.844ZM328.672 361.234H332.062V384.969H328.672V361.234ZM386.312 361.234H389.703V378.188H386.312V361.234ZM382.922 364.625H386.312V381.578H382.922V364.625ZM321.891 368.016H325.281V378.188H321.891V368.016ZM379.531 368.016H382.922V384.969H379.531V368.016ZM332.062 371.406H335.453V388.359H332.062V371.406ZM376.141 371.406H379.531V384.969H376.141V371.406ZM335.453 374.797H338.844V381.578H335.453V374.797ZM372.75 374.797H376.141V384.969H372.75V374.797ZM369.359 378.188H372.75V388.359H369.359V378.188ZM365.969 381.578H369.359V388.359H365.969V381.578ZM335.453 384.969H342.234V391.75H335.453V384.969ZM362.578 384.969H365.969V388.359H362.578V384.969ZM342.234 388.359H345.625V395.141H342.234V388.359ZM338.844 391.75H342.234V395.141H338.844V391.75ZM345.625 391.75H349.016V395.141H345.625V391.75Z" fill="#D99400"/>
<path d="M362.578 303.594H365.969V310.375H362.578V303.594ZM345.625 306.984H362.578V310.375H345.625V306.984ZM365.969 306.984H382.922V310.375H365.969V306.984ZM338.844 310.375H355.797V313.766H338.844V310.375ZM372.75 310.375H379.531V313.766H372.75V310.375ZM335.453 313.766H345.625V317.156H335.453V313.766ZM332.062 317.156H342.234V320.547H332.062V317.156ZM328.672 320.547H335.453V323.938H328.672V320.547ZM325.281 323.938H332.062V330.719H325.281V323.938ZM382.922 323.938H386.312V364.625H382.922V323.938ZM321.891 327.328H325.281V344.281H321.891V327.328ZM379.531 327.328H382.922V368.016H379.531V327.328ZM386.312 327.328H389.703V361.234H386.312V327.328ZM325.281 330.719H328.672V334.109H325.281V330.719ZM376.141 330.719H379.531V371.406H376.141V330.719ZM389.703 330.719H393.094V357.844H389.703V330.719ZM318.5 334.109H321.891V371.406H318.5V334.109ZM372.75 334.109H376.141V374.797H372.75V334.109ZM393.094 334.109H396.484V354.453H393.094V334.109ZM369.359 337.5H372.75V344.281H369.359V337.5ZM365.969 344.281H369.359V351.062H365.969V344.281ZM396.484 344.281H399.875V351.062H396.484V344.281ZM359.188 347.672H362.578V351.062H359.188V347.672ZM369.359 347.672H372.75V354.453H369.359V347.672ZM315.109 351.062H318.5V354.453H315.109V351.062ZM355.797 351.062H359.188V357.844H355.797V351.062ZM352.406 354.453H355.797V384.969H352.406V354.453ZM359.188 354.453H362.578V361.234H359.188V354.453ZM365.969 354.453H369.359V361.234H365.969V354.453ZM349.016 357.844H352.406V384.969H349.016V357.844ZM321.891 361.234H325.281V368.016H321.891V361.234ZM345.625 361.234H349.016V384.969H345.625V361.234ZM355.797 361.234H359.188V388.359H355.797V361.234ZM369.359 361.234H372.75V378.188H369.359V361.234ZM342.234 364.625H345.625V381.578H342.234V364.625ZM359.188 364.625H362.578V388.359H359.188V364.625ZM365.969 364.625H369.359V381.578H365.969V364.625ZM338.844 368.016H342.234V378.188H338.844V368.016ZM362.578 368.016H365.969V384.969H362.578V368.016ZM335.453 371.406H338.844V374.797H335.453V371.406Z" fill="#F0B81A"/>
<path d="M355.797 317.156H372.75V334.109H355.797V317.156ZM345.625 320.547H355.797V323.938H345.625V320.547ZM372.75 320.547H382.922V327.328H372.75V320.547ZM342.234 323.938H349.016V327.328H342.234V323.938ZM352.406 323.938H355.797V327.328H352.406V323.938ZM338.844 327.328H342.234V330.719H338.844V327.328ZM372.75 327.328H379.531V330.719H372.75V327.328ZM335.453 330.719H338.844V337.5H335.453V330.719ZM372.75 330.719H376.141V334.109H372.75V330.719ZM332.062 334.109H335.453V371.406H332.062V334.109ZM359.188 334.109H372.75V337.5H359.188V334.109ZM359.188 337.5H362.578V340.891H359.188V337.5ZM365.969 337.5H369.359V340.891H365.969V337.5ZM355.797 340.891H359.188V344.281H355.797V340.891ZM328.672 344.281H332.062V361.234H328.672V344.281ZM335.453 344.281H342.234V368.016H335.453V344.281ZM352.406 344.281H355.797V354.453H352.406V344.281ZM359.188 344.281H362.578V347.672H359.188V344.281ZM342.234 347.672H352.406V357.844H342.234V347.672ZM342.234 357.844H349.016V361.234H342.234V357.844ZM342.234 361.234H345.625V364.625H342.234V361.234ZM335.453 368.016H338.844V371.406H335.453V368.016Z" fill="#FFD94A"/>
<path d="M349.016 323.938H352.406V347.672H349.016V323.938ZM342.234 327.328H349.016V347.672H342.234V327.328ZM352.406 327.328H355.797V344.281H352.406V327.328ZM338.844 330.719H342.234V344.281H338.844V330.719ZM355.797 334.109H359.188V340.891H355.797V334.109ZM335.453 337.5H338.844V344.281H335.453V337.5Z" fill="#FFF3AD"/>
</g>
<defs>
<clipPath id="clip0_169_60">
<rect width="533" height="432" fill="white"/>
</clipPath>
</defs>
</svg>
